<svg width="416" height="128" viewBox="0 0 416 128" fill="none" xmlns="http://www.w3.org/2000/svg">
<g clip-path="url(#clip0_7064_105)">
<rect y="53" width="416" height="75" fill="#0200FF"/>
<rect width="416" height="53" fill="white"/>
<g filter="url(#filter0_df_7064_105)">
<path d="M169.485 83.8156L-12.4137 5.91943L-60.4123 118.003L121.486 195.899L169.485 83.8156Z" fill="#A8AEE0"/>
<path d="M122.352 194.947L-60.3699 116.181L-12.5758 3.9067L174.367 82.6683L122.352 194.947Z" fill="url(#paint0_linear_7064_105)"/>
<path d="M-13.436 4.85324L38.8004 136.366L168.375 85.4512L-13.436 4.85324Z" fill="url(#paint1_linear_7064_105)"/>
</g>
<path d="M434.486 66.8962L348.676 96.5771L366.965 149.452L452.776 119.771L434.486 66.8962Z" fill="#A8AEE0"/>
<path d="M452.776 119.181L366.417 148.82L348 95.9436L435.79 65L452.776 119.181Z" fill="url(#paint2_linear_7064_105)"/>
<path d="M348 96.5306L406.324 125.071L434.614 67.7941L348 96.5306Z" fill="url(#paint3_linear_7064_105)"/>
</g>
<defs>
<filter id="filter0_df_7064_105" x="-65.4124" y="-1.09326" width="244.779" height="201.993" filterUnits="userSpaceOnUse" color-interpolation-filters="sRGB">
<feFlood flood-opacity="0" result="BackgroundImageFix"/>
<feColorMatrix in="SourceAlpha" type="matrix" values="0 0 0 0 0 0 0 0 0 0 0 0 0 0 0 0 0 0 127 0" result="hardAlpha"/>
<feOffset/>
<feGaussianBlur stdDeviation="2"/>
<feComposite in2="hardAlpha" operator="out"/>
<feColorMatrix type="matrix" values="0 0 0 0 0 0 0 0 0 0 0 0 0 0 0 0 0 0 0.25 0"/>
<feBlend mode="normal" in2="BackgroundImageFix" result="effect1_dropShadow_7064_105"/>
<feBlend mode="normal" in="SourceGraphic" in2="effect1_dropShadow_7064_105" result="shape"/>
<feGaussianBlur stdDeviation="2.5" result="effect2_foregroundBlur_7064_105"/>
</filter>
<linearGradient id="paint0_linear_7064_105" x1="231.017" y1="-207.442" x2="12.8977" y2="170.232" gradientUnits="userSpaceOnUse">
<stop stop-color="white" stop-opacity="0"/>
<stop offset="0.95" stop-color="white"/>
</linearGradient>
<linearGradient id="paint1_linear_7064_105" x1="-2572.81" y1="-7929.49" x2="-2439.62" y2="-7514.49" gradientUnits="userSpaceOnUse">
<stop stop-color="white" stop-opacity="0"/>
<stop offset="0.95" stop-color="white"/>
</linearGradient>
<linearGradient id="paint2_linear_7064_105" x1="365.5" y1="-51.0017" x2="407.979" y2="144.565" gradientUnits="userSpaceOnUse">
<stop stop-color="white" stop-opacity="0"/>
<stop offset="0.95" stop-color="white"/>
</linearGradient>
<linearGradient id="paint3_linear_7064_105" x1="-2969.69" y1="-1808.1" x2="-2796.39" y2="-1708.27" gradientUnits="userSpaceOnUse">
<stop stop-color="white" stop-opacity="0"/>
<stop offset="0.95" stop-color="white"/>
</linearGradient>
<clipPath id="clip0_7064_105">
<rect width="416" height="128" fill="white"/>
</clipPath>
</defs>
</svg>
