<svg width="416" height="66" viewBox="0 0 416 66" fill="none" xmlns="http://www.w3.org/2000/svg">
<rect width="416" height="66" fill="#0200FF"/>
<g clip-path="url(#clip0_7061_103)">
<path d="M392.933 34.3249C394.722 33.0315 395.877 31.3547 395.877 28.6163C395.877 26.8681 394.846 24.8166 393.206 23.7997V23.5232H395.815V20H387.513C383.142 20 379.617 22.2477 378.515 25.8245C378.277 26.5827 378.154 27.4033 378.154 28.2774C378.154 29.1069 378.26 29.8919 378.445 30.6143C379.423 34.3338 382.789 36.5815 387.302 36.5815C389.487 36.5815 390.88 37.5627 390.88 39.186C390.88 40.5329 389.637 41.4516 387.945 41.4516V45.84C393.004 45.84 396 43.5745 396 39.4625C396 37.1969 394.828 35.306 392.933 34.3249ZM386.967 32.4161C384.728 32.4161 382.904 30.6946 382.904 28.3398C382.904 25.8245 384.72 24.1654 386.932 24.1654C389.17 24.1654 390.994 25.8869 390.994 28.2417C390.994 30.7659 389.179 32.4161 386.967 32.4161Z" fill="white"/>
<path d="M373.607 20V29.2942C373.607 31.6579 372.39 33.0672 370.24 33.0672C368.09 33.0672 366.909 31.6222 366.909 29.205V20H362V29.3834C362 34.5657 365.243 37.5092 370.214 37.5092C374.691 37.5092 377.942 35.0741 378.445 30.6232C378.489 30.2308 378.515 29.8116 378.515 29.3834V25.8245V20H373.607Z" fill="white"/>
<path d="M376.762 38.1514C370.857 38.1514 370.522 41.4606 365.578 41.4606V45.849C371.668 45.849 372.487 42.5398 376.762 42.5398C381.036 42.5398 381.855 45.849 387.945 45.849V41.4606C383.001 41.4606 382.666 38.1514 376.762 38.1514Z" fill="url(#paint0_linear_7061_103)"/>
</g>
<defs>
<linearGradient id="paint0_linear_7061_103" x1="365.579" y1="42.0008" x2="387.937" y2="42.0008" gradientUnits="userSpaceOnUse">
<stop offset="0.2032" stop-color="white" stop-opacity="0"/>
<stop offset="1" stop-color="white"/>
</linearGradient>
<clipPath id="clip0_7061_103">
<rect width="34" height="26" fill="white" transform="translate(362 20)"/>
</clipPath>
</defs>
</svg>
