<svg width="40" height="41" viewBox="0 0 40 41" fill="none" xmlns="http://www.w3.org/2000/svg">
<path fill-rule="evenodd" clip-rule="evenodd" d="M14.3257 5.43379C14.3257 2.4328 16.7584 0 19.7595 0C22.7605 0 25.1933 2.4328 25.1933 5.43379C25.1933 8.43478 22.7605 10.8676 19.7595 10.8676C16.7584 10.8676 14.3257 8.43478 14.3257 5.43379Z" fill="#000FFF"/>
<path d="M12.2963 20.3992L7.99809 18.9664C6.76169 18.5543 5.92773 17.3972 5.92773 16.094C5.92773 14.1663 7.70514 12.7294 9.59001 13.1333L13.3395 13.9368C13.548 13.9815 13.6522 14.0038 13.7556 14.0252C17.7161 14.8444 21.8023 14.8444 25.7628 14.0252C25.8662 14.0038 25.9705 13.9815 26.179 13.9368L29.9283 13.1333C31.8133 12.7294 33.5907 14.1663 33.5907 16.094C33.5907 17.3972 32.7566 18.5543 31.5203 18.9664L27.2221 20.3992C26.7026 20.5723 26.443 20.6588 26.2475 20.7795C25.5824 21.1899 25.2218 21.954 25.3277 22.7286C25.359 22.956 25.4572 23.2115 25.6538 23.7225L28.1174 30.1278C28.8506 32.0344 27.4432 34.0836 25.4003 34.0836C24.3558 34.0836 23.3911 33.524 22.8729 32.6169L19.7592 27.1679L16.6455 32.6169C16.1273 33.524 15.1627 34.0836 14.1181 34.0836C12.0752 34.0836 10.6678 32.0344 11.4011 30.1278L13.8647 23.7225C14.0612 23.2115 14.1595 22.956 14.1906 22.7286C14.2965 21.954 13.9359 21.1899 13.2708 20.7795C13.0755 20.6588 12.8157 20.5723 12.2963 20.3992Z" fill="#000FFF"/>
<path d="M19.7592 41.0001C30.6719 41.0001 39.5185 37.0192 39.5185 32.1085C39.5185 28.7063 35.272 25.7504 29.0342 24.2554L30.8837 29.064C32.3637 32.9121 29.5233 37.0479 25.4003 37.0479C23.2922 37.0479 21.3455 35.9183 20.2997 34.0878L19.7592 33.1421L19.2188 34.0878C18.173 35.9183 16.2263 37.0479 14.1181 37.0479C9.99523 37.0479 7.1548 32.9121 8.63481 29.064L10.4843 24.2554C4.2464 25.7504 0 28.7063 0 32.1085C0 37.0192 8.84651 41.0001 19.7592 41.0001Z" fill="#C5CCCC"/>
</svg>
