<svg width="28" height="41" viewBox="0 0 28 41" fill="none" xmlns="http://www.w3.org/2000/svg">
<path d="M13.6667 0C6.11874 0 0 6.11874 0 13.6667C0 16.0942 0.6519 18.3646 1.76163 20.3394C1.94596 20.6674 2.13918 20.9903 2.34896 21.3012L13.6667 41L24.9844 21.3012C25.1586 21.0433 25.309 20.7699 25.4644 20.5L25.572 20.3394C26.6808 18.3646 27.3333 16.0942 27.3333 13.6667C27.3333 6.11874 21.2141 0 13.6667 0ZM13.6667 6.83333C17.4404 6.83333 20.5 9.89279 20.5 13.6667C20.5 17.4404 17.4404 20.5 13.6667 20.5C9.89279 20.5 6.83333 17.4404 6.83333 13.6667C6.83333 9.89279 9.89279 6.83333 13.6667 6.83333Z" fill="#000FFF"/>
<circle cx="13.5" cy="14.5" r="8.5" fill="#000FFF"/>
<path d="M19.1638 16.0959C19.9251 15.5455 20.4164 14.832 20.4164 13.6667C20.4164 12.9227 19.9776 12.0497 19.28 11.617V11.4993H20.3902V10H16.8573C14.9972 10 13.4971 10.9565 13.0283 12.4786C12.927 12.8012 12.8745 13.1504 12.8745 13.5224C12.8745 13.8754 12.9195 14.2095 12.9983 14.5169C13.4146 16.0997 14.8472 17.0562 16.7673 17.0562C17.6974 17.0562 18.29 17.4738 18.29 18.1646C18.29 18.7377 17.7612 19.1287 17.0411 19.1287V20.9962C19.1938 20.9962 20.4689 20.0321 20.4689 18.2822C20.4689 17.3181 19.9701 16.5134 19.1638 16.0959ZM16.6248 15.2836C15.6723 15.2836 14.8959 14.5511 14.8959 13.549C14.8959 12.4786 15.6685 11.7726 16.6098 11.7726C17.5624 11.7726 18.3387 12.5052 18.3387 13.5072C18.3387 14.5814 17.5661 15.2836 16.6248 15.2836Z" fill="white"/>
<path d="M10.9391 10V13.9551C10.9391 14.961 10.4216 15.5607 9.50652 15.5607C8.59146 15.5607 8.08891 14.9458 8.08891 13.9172V10H6V13.9931C6 16.1984 7.38011 17.451 9.49527 17.451C11.4004 17.451 12.7843 16.4148 12.9981 14.5207C13.0168 14.3537 13.0281 14.1753 13.0281 13.9931V12.4786V10H10.9391Z" fill="white"/>
<path d="M12.2816 17.7241C9.7689 17.7241 9.62636 19.1323 7.52246 19.1323V20.9998C10.1139 20.9998 10.4627 19.5916 12.2816 19.5916C14.1005 19.5916 14.4492 20.9998 17.0407 20.9998V19.1323C14.9368 19.1323 14.7943 17.7241 12.2816 17.7241Z" fill="url(#paint0_linear_2622_2652)"/>
<defs>
<linearGradient id="paint0_linear_2622_2652" x1="7.52278" y1="19.3622" x2="17.0375" y2="19.3622" gradientUnits="userSpaceOnUse">
<stop offset="0.2032" stop-color="white" stop-opacity="0"/>
<stop offset="1" stop-color="white"/>
</linearGradient>
</defs>
</svg>
