<svg width="80" height="82" viewBox="0 0 80 82" fill="none" xmlns="http://www.w3.org/2000/svg">
<path fill-rule="evenodd" clip-rule="evenodd" d="M28.6519 10.8676C28.6519 4.86562 33.5174 0 39.5195 0C45.5216 0 50.3871 4.86562 50.3871 10.8676C50.3871 16.8697 45.5216 21.7353 39.5195 21.7353C33.5174 21.7353 28.6519 16.8697 28.6519 10.8676Z" fill="#000FFF"/>
<path d="M24.5932 40.7979L15.9967 37.9324C13.5239 37.1081 11.856 34.7939 11.856 32.1874C11.856 28.3321 15.4108 25.4583 19.1806 26.2662L26.6795 27.8731C27.0965 27.9624 27.305 28.0071 27.5117 28.0498C35.4328 29.6883 43.6053 29.6883 51.5264 28.0498C51.7331 28.0071 51.9418 27.9624 52.3587 27.8731L59.8574 26.2661C63.6274 25.4583 67.1822 28.3321 67.1822 32.1874C67.1822 34.7939 65.5141 37.1081 63.0414 37.9324L54.4449 40.7979C53.4059 41.1441 52.8867 41.3172 52.4958 41.5587C51.1656 42.3795 50.4444 43.9077 50.6562 45.4568C50.7187 45.9117 50.9151 46.4226 51.3083 47.4446L56.2355 60.2553C57.702 64.0685 54.8871 68.167 50.8013 68.167C48.7123 68.167 46.783 67.0478 45.7464 65.2335L39.5191 54.3355L33.2917 65.2335C32.2551 67.0478 30.3259 68.167 28.2367 68.167C24.1509 68.167 21.3361 64.0685 22.8028 60.2553L27.7299 47.4446C28.123 46.4226 28.3196 45.9117 28.3818 45.4568C28.5936 43.9077 27.8724 42.3795 26.5421 41.5587C26.1515 41.3172 25.6321 41.1441 24.5932 40.7979Z" fill="#000FFF"/>
<path d="M39.5187 82C61.3441 82 79.0374 74.0381 79.0374 64.2166C79.0374 57.4122 70.5445 51.5002 58.0688 48.5103L61.7677 58.1275C64.7277 65.8238 59.0469 74.0954 50.8009 74.0954C46.5847 74.0954 42.6913 71.8362 40.5996 68.1751L39.5187 66.2838L38.4379 68.1751C36.3461 71.8362 32.4528 74.0954 28.2364 74.0954C19.9906 74.0954 14.3097 65.8238 17.2697 58.1275L20.9687 48.5103C8.49285 51.5002 0 57.4122 0 64.2166C0 74.0381 17.6931 82 39.5187 82Z" fill="#00FFFF"/>
</svg>
