<svg width="55" height="82" viewBox="0 0 55 82" fill="none" xmlns="http://www.w3.org/2000/svg">
<path d="M27.3333 0C12.2375 0 0 12.2375 0 27.3333C0 32.1884 1.3038 36.7292 3.52327 40.6788C3.89192 41.3348 4.27835 41.9806 4.69792 42.6024L27.3333 82L49.9688 42.6024C50.3173 42.0865 50.6179 41.5398 50.9288 41L51.1441 40.6788C53.3615 36.7292 54.6667 32.1884 54.6667 27.3333C54.6667 12.2375 42.4282 0 27.3333 0ZM27.3333 13.6667C34.8808 13.6667 41 19.7856 41 27.3333C41 34.8808 34.8808 41 27.3333 41C19.7856 41 13.6667 34.8808 13.6667 27.3333C13.6667 19.7856 19.7856 13.6667 27.3333 13.6667Z" fill="#000FFF"/>
<path d="M42.2905 28.5C42.2905 37.0604 35.3509 44 26.7905 44C18.2301 44 11.2905 37.0604 11.2905 28.5C11.2905 19.9396 18.2301 13 26.7905 13C35.3509 13 42.2905 19.9396 42.2905 28.5Z" fill="#000FFF"/>
<path d="M40.1137 30.482C41.7974 29.2647 42.884 27.6866 42.884 25.1093C42.884 23.464 41.9136 21.5332 40.3708 20.5762V20.3159H42.826V17H35.0127C30.8987 17 27.581 19.1155 26.5442 22.4818C26.3202 23.1953 26.2041 23.9676 26.2041 24.7904C26.2041 25.571 26.3037 26.3098 26.4779 26.9898C27.3985 30.4904 30.5669 32.6058 34.8136 32.6058C36.8706 32.6058 38.1812 33.5293 38.1812 35.0571C38.1812 36.3247 37.0116 37.1894 35.4191 37.1894V41.3196C40.18 41.3196 43.0001 39.1874 43.0001 35.3173C43.0001 33.185 41.897 31.4054 40.1137 30.482ZM34.4985 28.6855C32.3918 28.6855 30.6748 27.0653 30.6748 24.8491C30.6748 22.4818 32.3835 20.9203 34.4653 20.9203C36.572 20.9203 38.289 22.5405 38.289 24.7568C38.289 27.1324 36.5803 28.6855 34.4985 28.6855Z" fill="white"/>
<path d="M21.9236 17V25.7474C21.9236 27.972 20.7789 29.2983 18.7552 29.2983C16.7314 29.2983 15.6199 27.9384 15.6199 25.6634V17H11V25.8313C11 30.7087 14.0523 33.479 18.7303 33.479C22.9438 33.479 26.0044 31.1871 26.4772 26.9981C26.5187 26.6288 26.5435 26.2343 26.5435 25.8313V22.4818V17H21.9236Z" fill="white"/>
<path d="M24.8927 34.083C19.3355 34.083 19.0203 37.1975 14.3672 37.1975V41.3277C20.0986 41.3277 20.8699 38.2132 24.8927 38.2132C28.9155 38.2132 29.6867 41.3277 35.4181 41.3277V37.1975C30.765 37.1975 30.4498 34.083 24.8927 34.083Z" fill="url(#paint0_linear_2622_2648)"/>
<defs>
<linearGradient id="paint0_linear_2622_2648" x1="14.3679" y1="37.7059" x2="35.411" y2="37.7059" gradientUnits="userSpaceOnUse">
<stop offset="0.2032" stop-color="white" stop-opacity="0"/>
<stop offset="1" stop-color="white"/>
</linearGradient>
</defs>
</svg>
