<svg width="1858" height="847" viewBox="0 0 1858 847" fill="none" xmlns="http://www.w3.org/2000/svg">
<mask id="mask0_2727_1885" style="mask-type:alpha" maskUnits="userSpaceOnUse" x="0" y="154" width="463" height="552">
<path d="M108.152 646.8C124.233 646.8 137.268 659.82 137.269 675.88V676.753C137.268 692.812 124.233 705.833 108.152 705.833C92.0713 705.833 79.0337 692.812 79.0332 676.753V675.88C79.0337 659.82 92.0713 646.8 108.152 646.8Z" fill="#00FFFF"/>
<path d="M352.074 705.833H187.622C171.3 705.833 158.068 692.617 158.068 676.316C158.068 660.016 171.3 646.8 187.622 646.8H363.898L352.074 705.833Z" fill="#00FFFF"/>
<path d="M126.435 485.1C142.757 485.1 155.988 498.315 155.988 514.616C155.988 530.917 142.757 544.133 126.435 544.133H125.225C108.904 544.133 95.6719 530.917 95.6719 514.616C95.6719 498.315 108.904 485.1 125.225 485.1H126.435Z" fill="#00FFFF"/>
<path d="M384.457 544.133H200.099C183.778 544.133 170.546 530.917 170.546 514.616C170.546 498.315 183.778 485.1 200.099 485.1H396.275L384.457 544.133Z" fill="#00FFFF"/>
<path d="M41.1602 310.566C57.4821 310.566 70.7135 323.782 70.7135 340.083C70.7135 356.384 57.4821 369.6 41.1602 369.6H29.5532C13.2315 369.6 0 356.384 0 340.083C0 323.782 13.2315 310.566 29.5532 310.566H41.1602Z" fill="#00FFFF"/>
<path d="M419.405 369.6H121.067C104.745 369.6 91.5137 356.384 91.5137 340.083C91.5137 323.782 104.745 310.566 121.067 310.566H431.226L419.405 369.6Z" fill="#00FFFF"/>
<path d="M450.757 213.033H235.458C219.136 213.033 205.904 199.818 205.904 183.517C205.904 167.215 219.136 154 235.458 154H462.578L450.757 213.033Z" fill="#00FFFF"/>
</mask>
<g mask="url(#mask0_2727_1885)">
<path d="M406.036 477.4H74.5254V554.4H406.036V477.4Z" fill="#00FFFF"/>
<path d="M434.304 300.3H-5.13965V377.3H434.304V300.3Z" fill="#00FF00"/>
<path d="M370.058 636.533H69.3857V713.533H370.058V636.533Z" fill="#00FF00"/>
<path d="M467.712 143.733H200.448V220.733H467.712V143.733Z" fill="#00FFFF"/>
</g>
<path d="M1200.4 651.728C1144.48 692.454 1074 712.815 988.957 712.815C894.593 712.815 817.993 685.762 759.162 631.657C700.328 577.552 670.913 503.958 670.913 410.872C670.913 318.952 701.494 245.357 762.657 190.088C824.4 134.819 902.456 107.185 996.821 107.185C1063.23 107.185 1120.6 119.402 1168.95 143.837V278.227C1113.03 246.229 1055.65 230.231 996.821 230.231C941.482 230.231 897.504 246.811 864.885 279.972C832.263 312.551 815.955 356.184 815.955 410.872C815.955 466.14 831.973 510.066 864.011 542.645C896.047 575.224 939.735 591.514 995.074 591.514C1020.12 591.514 1044.88 587.734 1069.34 580.17V469.341H974.104V355.022H1200.4V651.728Z" fill="#000FFF"/>
<path d="M1854.05 407.433C1854.05 497.607 1827.84 570.621 1775.42 626.472C1723.57 681.74 1654.26 709.375 1567.46 709.375C1480.09 709.375 1410.48 681.74 1358.64 626.472C1306.8 571.204 1280.87 498.19 1280.87 407.433C1280.87 317.258 1306.8 244.535 1358.64 189.266C1411.06 133.416 1480.67 105.49 1567.46 105.49C1654.84 105.49 1724.45 133.125 1776.29 188.394C1828.13 243.662 1854.05 316.675 1854.05 407.433ZM1463.49 276.533C1437.86 308.531 1425.04 352.165 1425.04 407.433C1425.04 462.701 1437.86 506.627 1463.49 539.205C1489.12 571.204 1523.78 587.202 1567.46 587.202C1611.15 587.202 1645.81 571.204 1671.44 539.205C1697.07 506.627 1709.88 462.701 1709.88 407.433C1709.88 352.165 1697.07 308.531 1671.44 276.533C1645.81 243.953 1611.15 227.664 1567.46 227.664C1523.78 227.664 1489.12 243.953 1463.49 276.533Z" fill="#000FFF"/>
<path d="M637.322 128.334H493.411L377.768 705.834H521.679L637.322 128.334Z" fill="#000FFF"/>
<path d="M1378.78 196.014H1340.17L1354.89 128.015C1355.73 123.154 1359.95 119.604 1364.89 119.604H1378.78L1378.78 196.014Z" fill="#99FF99"/>
<path d="M1777.4 207.015L1756.88 113.947C1750.87 81.6329 1728.38 54.7959 1697.56 43.2946C1656.99 28.1616 1601.3 9.77394 1568.2 8.83197V8.74219C1567.78 8.74219 1567.31 8.78066 1566.88 8.78836C1566.44 8.78066 1565.97 8.74219 1565.55 8.74219V8.83197C1532.45 9.77394 1476.76 28.1616 1436.19 43.2946C1405.36 54.7959 1382.88 81.6329 1376.87 113.947L1356.35 207.015H1567.23H1777.4Z" fill="#00FF00"/>
<path d="M1612.11 18.285C1611.75 8.08503 1603.37 0 1593.15 0H1567.61H1566.13H1540.59C1530.38 0 1521.99 8.08503 1521.64 18.285L1514.45 207.538H1566.13H1567.61H1619.3L1612.11 18.285Z" fill="#99FF99"/>
<path d="M1814.54 235.338H1321.86C1318.49 235.338 1315.76 232.612 1315.76 229.25V202.105C1315.76 198.742 1318.49 196.017 1321.86 196.017H1814.54C1817.91 196.017 1820.64 198.742 1820.64 202.105V229.25C1820.64 232.612 1817.91 235.338 1814.54 235.338Z" fill="#99FF99"/>
<path d="M1754.96 196.014H1793.57L1778.85 128.015C1778.01 123.154 1773.79 119.604 1768.85 119.604H1754.96V196.014Z" fill="#99FF99"/>
<path d="M406.021 831.6H395.012V772.782H406.021V831.6ZM429.98 831.6H418.97V772.782H431.465L445.62 797.304C447.951 801.318 450.019 805.071 451.823 808.561C453.689 811.993 454.941 814.436 455.58 815.892L456.542 818.073C456.076 813.245 455.843 806.321 455.843 797.304V772.782H466.939V831.6H454.357L440.028 807.165C437.756 803.325 435.69 799.66 433.824 796.169C432.02 792.62 430.766 790.061 430.067 788.49L429.018 786.047C429.661 791.573 429.98 798.585 429.98 807.078V831.6ZM516.262 781.858H501.321V831.6H490.225V781.858H475.283V772.782H516.262V781.858ZM559.646 831.6H524.522V772.782H559.297V781.77H535.618V797.74H556.676V806.641H535.618V822.611H559.646V831.6ZM604.67 831.6H570.681V772.782H581.691V821.826H604.67V831.6ZM624.712 831.6H613.703V772.782H624.712V831.6ZM686.594 826.538C681.236 830.378 674.537 832.298 666.498 832.298C657.177 832.298 649.635 829.593 643.868 824.182C638.16 818.771 635.305 811.413 635.305 802.104C635.305 793.028 638.248 785.697 644.13 780.112C650.072 774.527 657.558 771.735 666.586 771.735C673.285 771.735 679.021 772.985 683.798 775.487V786.745C678.44 783.544 672.761 781.945 666.76 781.945C660.878 781.945 656.129 783.778 652.518 787.443C648.908 791.108 647.101 795.995 647.101 802.104C647.101 808.328 648.848 813.245 652.343 816.852C655.898 820.401 660.76 822.175 666.935 822.175C669.965 822.175 672.905 821.651 675.76 820.604V806.729H664.925V797.304H686.594V825.578H686.507L686.594 826.538ZM733.371 831.6H698.246V772.782H733.021V781.77H709.343V797.74H730.4V806.641H709.343V822.611H733.371V831.6ZM708.906 768.506H698.683L711.352 753.758H720.614L733.283 768.506H723.061L715.983 759.866L708.906 768.506ZM755.418 831.6H744.408V772.782H756.903L771.058 797.304C773.388 801.318 775.455 805.071 777.261 808.561C779.124 811.993 780.378 814.436 781.018 815.892L781.979 818.073C781.514 813.245 781.28 806.321 781.28 797.304V772.782H792.377V831.6H779.795L765.466 807.165C763.194 803.325 761.125 799.66 759.262 796.169C757.455 792.62 756.204 790.061 755.505 788.49L754.456 786.047C755.096 791.573 755.418 798.585 755.418 807.078V831.6ZM847.552 828.807C843.941 831.135 838.873 832.298 832.348 832.298C823.611 832.298 816.39 829.564 810.68 824.095C805.031 818.569 802.204 811.267 802.204 802.191C802.204 793.29 805 786.046 810.592 780.461C816.243 774.817 823.495 771.997 832.348 771.997C838.814 771.997 843.854 773.072 847.464 775.225V785.959C843.039 783.4 838.146 782.119 832.785 782.119C827.427 782.119 822.943 783.952 819.33 787.617C815.778 791.223 814 796.082 814 802.191C814 808.299 815.778 813.158 819.33 816.764C822.943 820.371 827.63 822.175 833.397 822.175C838.932 822.175 843.651 820.72 847.552 817.812V828.807ZM869.516 831.6H858.507V772.782H869.516V831.6ZM898.196 806.729L897.409 809.259H914.01L913.224 806.641C911.243 800.358 909.611 795.094 908.331 790.846C907.108 786.542 906.35 783.837 906.059 782.73L905.71 780.985C905.186 783.893 902.68 792.476 898.196 806.729ZM890.332 831.6H878.798L898.72 772.782H912.962L932.883 831.6H921L916.807 818.248H894.526L890.332 831.6ZM998.14 831.6H963.015V772.782H997.79V781.77H974.112V797.74H995.169V806.641H974.112V822.611H998.14V831.6ZM1019.14 831.6H1008.13L1012.85 772.782H1025.43L1033.47 794.162C1034.87 797.768 1036.18 801.377 1037.4 804.983C1038.62 808.533 1039.5 811.179 1040.02 812.925L1040.81 815.63C1042.61 809.58 1045.12 802.424 1048.32 794.162L1056.53 772.782H1069.12L1074.88 831.6H1063.87L1061.78 808.649L1060.2 788.054C1058.11 794.047 1055.6 800.91 1052.69 808.649L1044.48 830.727H1036.96L1028.92 808.649L1022.02 788.315C1022.02 791.167 1021.64 797.943 1020.89 808.649L1019.14 831.6ZM1156.66 826.538C1151.3 830.378 1144.6 832.298 1136.56 832.298C1127.24 832.298 1119.7 829.593 1113.93 824.182C1108.23 818.771 1105.37 811.413 1105.37 802.104C1105.37 793.028 1108.31 785.697 1114.2 780.112C1120.14 774.527 1127.62 771.735 1136.65 771.735C1143.35 771.735 1149.09 772.985 1153.86 775.487V786.745C1148.51 783.544 1142.83 781.945 1136.83 781.945C1130.94 781.945 1126.2 783.778 1122.58 787.443C1118.97 791.108 1117.17 795.995 1117.17 802.104C1117.17 808.328 1118.91 813.245 1122.41 816.852C1125.96 820.401 1130.83 822.175 1137 822.175C1140.03 822.175 1142.97 821.651 1145.83 820.604V806.729H1134.99V797.304H1156.66V825.578H1156.57L1156.66 826.538ZM1203.44 831.6H1168.31V772.782H1203.09V781.77H1179.41V797.74H1200.47V806.641H1179.41V822.611H1203.44V831.6ZM1250.04 815.106C1250.04 820.342 1248.14 824.531 1244.36 827.673C1240.63 830.755 1235.71 832.298 1229.59 832.298C1222.95 832.298 1217.45 831.048 1213.08 828.545V817.288C1218.09 820.894 1223.56 822.699 1229.5 822.699C1232.18 822.699 1234.34 822.059 1235.97 820.779C1237.6 819.441 1238.42 817.665 1238.42 815.455C1238.42 814.408 1238.21 813.476 1237.8 812.663C1237.4 811.849 1236.55 811.033 1235.27 810.219C1234.05 809.406 1233.09 808.823 1232.39 808.474C1231.75 808.125 1230.38 807.486 1228.28 806.554C1227.7 806.264 1227.26 806.059 1226.97 805.943C1224.81 804.955 1223.07 804.082 1221.73 803.325C1220.39 802.512 1218.93 801.434 1217.36 800.096C1215.79 798.759 1214.59 797.158 1213.78 795.297C1213.02 793.436 1212.64 791.311 1212.64 788.926C1212.64 783.924 1214.47 779.91 1218.14 776.884C1221.87 773.857 1226.79 772.346 1232.91 772.346C1238.44 772.346 1243.22 773.306 1247.24 775.225V785.872C1242.87 783.254 1238.21 781.945 1233.26 781.945C1230.52 781.945 1228.37 782.556 1226.79 783.778C1225.28 784.999 1224.52 786.57 1224.52 788.49C1224.52 790.41 1225.34 792.009 1226.97 793.29C1228.66 794.511 1231.16 795.879 1234.48 797.391C1236.81 798.438 1238.71 799.37 1240.16 800.184C1241.62 800.941 1243.19 802.016 1244.88 803.413C1246.63 804.809 1247.91 806.495 1248.73 808.474C1249.6 810.394 1250.04 812.604 1250.04 815.106ZM1296.83 781.858H1281.89V831.6H1270.8V781.858H1255.85V772.782H1296.83V781.858ZM1320.82 806.729L1320.03 809.259H1336.63L1335.85 806.641C1333.87 800.358 1332.24 795.094 1330.96 790.846C1329.73 786.542 1328.97 783.837 1328.68 782.73L1328.33 780.985C1327.81 783.893 1325.3 792.476 1320.82 806.729ZM1312.96 831.6H1301.42L1321.34 772.782H1335.59L1355.51 831.6H1343.62L1339.43 818.248H1317.15L1312.96 831.6ZM1323.53 763.095C1322.13 763.095 1320.99 763.385 1320.12 763.968C1319.25 764.492 1318.29 765.48 1317.24 766.935L1312.26 762.31C1313.19 760.39 1314.5 758.791 1316.19 757.51C1317.94 756.173 1319.86 755.503 1321.96 755.503C1323.93 755.503 1326.12 756.055 1328.51 757.161C1330.9 758.267 1332.64 758.819 1333.75 758.819C1336.25 758.819 1338.12 757.569 1339.34 755.067L1344.94 759.517C1342.66 764.114 1339.11 766.411 1334.28 766.411C1332.53 766.411 1330.52 765.86 1328.25 764.753C1325.98 763.647 1324.4 763.095 1323.53 763.095ZM1417.27 802.016C1417.27 811.092 1414.73 818.394 1409.66 823.92C1404.66 829.446 1397.93 832.211 1389.48 832.211C1381.03 832.211 1374.28 829.446 1369.21 823.92C1364.14 818.394 1361.61 811.092 1361.61 802.016C1361.61 792.882 1364.11 785.551 1369.12 780.025C1374.19 774.499 1380.95 771.735 1389.39 771.735C1397.96 771.735 1404.74 774.499 1409.75 780.025C1414.76 785.495 1417.27 792.825 1417.27 802.016ZM1373.4 802.016C1373.4 808.184 1374.86 813.071 1377.77 816.677C1380.68 820.283 1384.59 822.088 1389.48 822.088C1394.43 822.088 1398.33 820.314 1401.19 816.764C1404.04 813.158 1405.47 808.24 1405.47 802.016C1405.47 795.792 1404.04 790.874 1401.19 787.268C1398.33 783.662 1394.4 781.858 1389.39 781.858C1384.44 781.858 1380.54 783.662 1377.69 787.268C1374.83 790.874 1373.4 795.792 1373.4 802.016ZM1468.01 831.6H1448.78V772.782H1468.01C1476.8 772.782 1484 775.487 1489.59 780.898C1495.18 786.308 1497.97 793.143 1497.97 801.405C1497.97 810.422 1495.27 817.724 1489.85 823.309C1484.43 828.835 1477.15 831.6 1468.01 831.6ZM1467.66 782.032H1460.05V822.437H1467.83C1474.01 822.437 1478.69 820.545 1481.9 816.764C1485.1 812.925 1486.7 807.804 1486.7 801.405C1486.7 795.761 1484.98 791.136 1481.55 787.53C1478.17 783.865 1473.54 782.032 1467.66 782.032ZM1542.87 831.6H1507.74V772.782H1542.52V781.77H1518.84V797.74H1539.9V806.641H1518.84V822.611H1542.87V831.6ZM1628.88 802.016C1628.88 811.092 1626.34 818.394 1621.28 823.92C1616.27 829.446 1609.54 832.211 1601.09 832.211C1592.65 832.211 1585.89 829.446 1580.82 823.92C1575.75 818.394 1573.22 811.092 1573.22 802.016C1573.22 792.882 1575.72 785.551 1580.73 780.025C1585.8 774.499 1592.56 771.735 1601.01 771.735C1609.57 771.735 1616.35 774.499 1621.36 780.025C1626.37 785.495 1628.88 792.825 1628.88 802.016ZM1585.02 802.016C1585.02 808.184 1586.47 813.071 1589.38 816.677C1592.3 820.283 1596.2 822.088 1601.09 822.088C1606.04 822.088 1609.95 820.314 1612.8 816.764C1615.65 813.158 1617.08 808.24 1617.08 802.016C1617.08 795.792 1615.65 790.874 1612.8 787.268C1609.95 783.662 1606.01 781.858 1601.01 781.858C1596.05 781.858 1592.15 783.662 1589.3 787.268C1586.44 790.874 1585.02 795.792 1585.02 802.016ZM1662.57 831.6H1638.72V772.782H1659.6C1665.89 772.782 1670.79 774.265 1674.28 777.233C1677.78 780.2 1679.52 784.039 1679.52 788.752C1679.52 791.952 1678.65 794.745 1676.9 797.129C1675.16 799.457 1672.91 800.997 1670.18 801.755C1673.32 802.512 1675.91 804.052 1677.95 806.38C1679.99 808.649 1681.01 811.762 1681.01 815.717C1681.01 820.371 1679.38 824.182 1676.12 827.149C1672.86 830.116 1668.34 831.6 1662.57 831.6ZM1658.21 781.77H1649.73V797.566H1656.37C1660.33 797.566 1663.3 796.78 1665.28 795.209C1667.26 793.639 1668.25 791.632 1668.25 789.188C1668.25 786.919 1667.41 785.115 1665.72 783.778C1664.09 782.44 1661.58 781.77 1658.21 781.77ZM1658.73 806.38H1649.73V822.611H1659.17C1666.22 822.611 1669.74 819.934 1669.74 814.583C1669.74 809.113 1666.07 806.38 1658.73 806.38ZM1708.6 781.858H1701.44V801.056H1708.78C1712.16 801.056 1714.69 800.212 1716.38 798.526C1718.07 796.78 1718.91 794.365 1718.91 791.282C1718.91 788.256 1718.01 785.931 1716.2 784.301C1714.46 782.671 1711.92 781.858 1708.6 781.858ZM1701.44 831.6H1690.43V772.782H1708.6C1715.3 772.782 1720.54 774.468 1724.33 777.843C1728.17 781.219 1730.1 785.726 1730.1 791.37C1730.04 795.559 1729.02 799.108 1727.04 802.016C1725.06 804.868 1722.35 806.99 1718.91 808.387L1734.03 831.6H1720.83L1707.47 810.132H1701.44V831.6ZM1757.61 806.729L1756.82 809.259H1773.42L1772.64 806.641C1770.66 800.358 1769.02 795.094 1767.74 790.846C1766.52 786.542 1765.76 783.837 1765.47 782.73L1765.12 780.985C1764.6 783.893 1762.09 792.476 1757.61 806.729ZM1749.75 831.6H1738.21L1758.13 772.782H1772.38L1792.3 831.6H1780.41L1776.22 818.248H1753.94L1749.75 831.6ZM1836.32 815.106C1836.32 820.342 1834.42 824.531 1830.64 827.673C1826.91 830.755 1821.99 832.298 1815.87 832.298C1809.23 832.298 1803.73 831.048 1799.36 828.545V817.288C1804.37 820.894 1809.84 822.699 1815.79 822.699C1818.46 822.699 1820.62 822.059 1822.25 820.779C1823.88 819.441 1824.7 817.665 1824.7 815.455C1824.7 814.408 1824.49 813.476 1824.09 812.663C1823.68 811.849 1822.83 811.033 1821.55 810.219C1820.33 809.406 1819.37 808.823 1818.67 808.474C1818.03 808.125 1816.66 807.486 1814.56 806.554C1813.98 806.264 1813.54 806.059 1813.25 805.943C1811.1 804.955 1809.35 804.082 1808.01 803.325C1806.67 802.512 1805.21 801.434 1803.64 800.096C1802.07 798.759 1800.87 797.158 1800.06 795.297C1799.3 793.436 1798.92 791.311 1798.92 788.926C1798.92 783.924 1800.76 779.91 1804.43 776.884C1808.15 773.857 1813.08 772.346 1819.19 772.346C1824.73 772.346 1829.5 773.306 1833.52 775.225V785.872C1829.15 783.254 1824.49 781.945 1819.54 781.945C1816.8 781.945 1814.65 782.556 1813.08 783.778C1811.56 784.999 1810.81 786.57 1810.81 788.49C1810.81 790.41 1811.62 792.009 1813.25 793.29C1814.94 794.511 1817.45 795.879 1820.77 797.391C1823.09 798.438 1824.99 799.37 1826.45 800.184C1827.9 800.941 1829.47 802.016 1831.16 803.413C1832.91 804.809 1834.19 806.495 1835.01 808.474C1835.88 810.394 1836.32 812.604 1836.32 815.106Z" fill="#000FFF"/>
</svg>
