<svg width="340" height="260" viewBox="0 0 340 260" fill="none" xmlns="http://www.w3.org/2000/svg">
<path d="M309.331 143.249C327.221 130.315 338.766 113.547 338.766 86.1632C338.766 68.6808 328.455 48.1658 312.063 37.9975V35.2324H338.15V0H255.132C211.42 0 176.169 22.4774 165.153 58.2449C162.773 65.8266 161.539 74.0325 161.539 82.7741C161.539 91.0688 162.597 98.9185 164.448 106.143C174.23 143.338 207.895 165.815 253.017 165.815C274.873 165.815 288.798 175.627 288.798 191.86C288.798 205.329 276.371 214.516 259.45 214.516V258.4C310.036 258.4 340 235.745 340 194.625C340 171.969 328.279 153.06 309.331 143.249ZM249.668 124.161C227.284 124.161 209.041 106.946 209.041 83.3981C209.041 58.2449 227.196 41.6544 249.316 41.6544C271.7 41.6544 289.943 58.8693 289.943 82.4169C289.943 107.659 271.788 124.161 249.668 124.161Z" fill="white"/>
<path d="M116.065 0V92.9424C116.065 116.579 103.903 130.672 82.4001 130.672C60.8969 130.672 49.0876 116.222 49.0876 92.0499V0H0V93.834C0 145.657 32.4313 175.092 82.1357 175.092C126.905 175.092 159.424 150.741 164.448 106.232C164.889 102.308 165.153 98.1156 165.153 93.834V58.2449V0H116.065Z" fill="white"/>
<path d="M147.615 181.514C88.5692 181.514 85.2198 214.606 35.78 214.606V258.49C96.6771 258.49 104.873 225.398 147.615 225.398C190.358 225.398 198.553 258.49 259.45 258.49V214.606C210.01 214.606 206.661 181.514 147.615 181.514Z" fill="url(#paint0_linear_7055_126)"/>
<defs>
<linearGradient id="paint0_linear_7055_126" x1="35.7876" y1="220.008" x2="259.374" y2="220.008" gradientUnits="userSpaceOnUse">
<stop offset="0.2032" stop-color="white" stop-opacity="0"/>
<stop offset="1" stop-color="white"/>
</linearGradient>
</defs>
</svg>
