<svg width="222" height="75" viewBox="0 0 222 75" fill="none" xmlns="http://www.w3.org/2000/svg">
<g clip-path="url(#clip0_906_8)">
<path fill-rule="evenodd" clip-rule="evenodd" d="M114.731 6.9508V2.0818H113.561V0.570801H117.352V2.0818H116.181V6.9508H114.731Z" fill="white" stroke="#3EB54A" stroke-width="0.085" stroke-miterlimit="22.9256"/>
<path fill-rule="evenodd" clip-rule="evenodd" d="M124.098 6.9508H122.76L122.425 4.2088C122.425 4.0408 122.37 3.8168 122.37 3.5368C122.37 3.3128 122.314 3.0328 122.314 2.7528L122.091 3.7598C122.091 3.8718 122.035 3.9278 122.035 3.9278L121.31 6.8938H120.418L119.694 3.9278C119.694 3.8718 119.694 3.8158 119.638 3.7598C119.526 3.3678 119.471 3.0318 119.415 2.7528C119.415 2.9768 119.359 3.2568 119.359 3.4808C119.359 3.7048 119.303 3.9288 119.303 4.2088L118.969 6.9508H117.631L118.467 0.570801H119.861L120.641 3.8728C120.641 3.8728 120.641 3.9288 120.697 3.9848L120.864 4.7128C120.864 4.6008 120.864 4.4888 120.92 4.3208C120.92 4.2088 120.976 4.0408 121.032 3.8168L121.812 0.570801H123.262L124.098 6.9508ZM130.898 34.7668C126.55 34.7108 124.654 38.2928 123.818 42.9938C123.205 46.5758 124.375 49.9898 128.222 50.0458C132.571 50.2698 134.912 46.4638 135.581 42.6018C136.25 38.5718 135.414 34.7668 130.898 34.7668ZM186.871 40.4198L185.087 50.4378H196.85C196.571 51.8928 196.961 53.0128 197.798 53.7398C198.578 54.4118 199.749 54.8588 201.087 54.8588C203.317 54.8588 205.77 54.1868 206.216 51.6128C207.164 46.4638 189.156 49.5418 186.871 40.4198ZM148.849 44.5058C156.599 37.7898 172.376 41.4838 173.324 36.0548C173.77 33.4248 170.703 33.0888 169.142 33.0888C167.135 33.0888 164.404 33.4808 163.512 36.6148H150.243L148.849 44.5058ZM185.087 61.6878H170.313V57.8258C165.574 61.6318 161.282 62.7508 155.874 62.7508C151.804 62.7508 148.18 61.5198 146.229 58.9448C144.167 67.6758 140.041 74.0558 124.71 74.0558C111.999 74.0558 107.483 68.9628 107.762 63.6458H122.09C122.034 64.0378 122.201 64.7088 122.703 65.2128C123.205 65.7728 124.208 66.1078 125.658 66.1078C129.783 66.1078 131.79 64.2608 132.682 59.0558L133.184 56.0898C130.731 58.1608 127.33 60.0078 122.145 60.0078C112.166 60.0078 107.818 52.1158 109.435 42.8818C110.996 33.9828 116.905 24.5248 128.78 24.5248C130.807 24.5025 132.801 25.0326 134.549 26.0581C136.298 27.0837 137.734 28.5659 138.703 30.3458L139.539 25.5888H152.194L150.856 33.0328C153.421 27.5478 159.721 24.4698 171.595 24.4698C184.473 24.4698 187.595 28.1078 187.707 33.5928C190.717 26.5968 199.359 24.4698 206.049 24.4698C213.909 24.4698 222.829 26.2608 221.937 35.8868H208.948C209.003 34.7118 208.669 33.8718 208.056 33.2558C207.387 32.6398 206.439 32.3608 205.324 32.3608C202.871 32.3608 201.143 33.1448 200.808 34.9358C199.916 39.9728 223.275 36.6148 220.934 50.1588C219.596 57.7148 212.515 62.8078 199.303 62.8078C193.003 62.8078 186.536 61.3528 184.195 56.3158V56.4278C183.804 58.4988 183.693 59.5618 185.31 61.0728L185.087 61.6878ZM163.735 54.5798C168.752 54.5798 171.094 50.6618 171.651 45.6808C166.578 47.9758 160.557 46.8558 159.721 51.5578C159.442 53.3488 160.947 54.5798 163.735 54.5798Z" fill="white"/>
<path fill-rule="evenodd" clip-rule="evenodd" d="M104.531 30.1776C104.531 22.0066 98.454 15.2906 90.649 14.2826V0.682617C105.924 1.74562 117.966 14.5626 117.966 30.1776C117.966 45.7926 105.924 58.6096 90.593 59.6726V46.0726C98.509 45.0096 104.531 38.2926 104.531 30.1776ZM168.921 19.2076C163.736 18.1446 156.099 23.1256 155.43 24.8046C156.656 22.6216 158.496 20.1596 162.12 18.2006C169.033 14.5626 176.838 17.4166 178.956 15.7376C181.13 14.0026 180.628 15.4576 180.294 16.3536C179.458 18.5366 174.496 22.7336 167.36 22.7336C161.116 22.7336 157.66 23.7406 155.82 24.9726C155.374 25.2526 163.569 18.8726 168.921 19.2076Z" fill="white"/>
<path fill-rule="evenodd" clip-rule="evenodd" d="M15.61 60.1758H0V0.570801H15.61L34.342 31.9688V0.570801H81.395C71.248 2.6418 65.338 8.1258 61.994 15.6258H50.23V22.6778H59.484C58.759 25.2528 58.369 27.9948 58.369 30.8488C58.369 33.3118 58.648 35.7178 59.205 38.0128H50.23V45.3448H62.049C66.007 52.6208 72.92 58.1058 81.171 60.1758H34.341L15.61 28.4988V60.1758Z" fill="white"/>
</g>
<defs>
<clipPath id="clip0_906_8">
<rect width="222" height="75" fill="white"/>
</clipPath>
</defs>
</svg>
