<svg width="627" height="150" viewBox="0 0 627 150" fill="none" xmlns="http://www.w3.org/2000/svg">
<g clip-path="url(#clip0_906_14)">
<path fill-rule="evenodd" clip-rule="evenodd" d="M0.5 143.469V134.365L46.2604 62.3958L35.6719 56.1562C31.9688 54.5729 31.8385 51.2708 35.276 46.2552C41.7969 36.526 53.0885 25.3542 61.0104 23.2917V6.66145C62.625 2.28124 67.1615 -0.0677159 74.7188 1.76041C77.0521 2.43228 78.2813 4.40624 78.2344 7.84895H84.3698C86.1563 7.6927 85.9167 10.7552 84.3698 10.7656H78.3385L77.0469 19.974L69.474 20.5208V23.8333C72.776 25.4844 75.3802 28.3542 76.3021 34.2292C76.526 44.1354 73.1771 54.4687 66.7969 65.1667L73.1354 69.5208C74.1927 70.3125 74.3229 72.0312 73.5313 74.6719L98.4792 102.589C98.151 99.2448 99.0365 96.7552 101.349 95.2604L95.9063 89.6198L113.031 74.8698L117.979 80.3125C121.563 77.7135 125.057 76.8698 128.375 79.8177L146.396 100.406C149.005 103.401 149.792 105.615 146.49 109.417L148.271 111.198L130.255 127.036C143.938 145.641 109.927 149.323 117.682 129.312L71.651 77.0469C70.2708 76.4792 68.7604 76.7917 67.8906 76.2552L62.3438 72.5885L59.375 77.0469L104.714 128.62C106.693 127.865 108.672 127.104 110.656 126.344L113.13 128.62L96.7969 143.271L50.3646 90.5104L18.2917 136.839L24.8229 139.016V143.271L0.5 143.469Z" fill="white" stroke="white" stroke-width="0.755867"/>
<path fill-rule="evenodd" clip-rule="evenodd" d="M187.479 44.3541H208.995L193.484 86.6875H213.297L229.115 44.3541H250.625L229.807 101.5L186.875 101.901C174.615 102.016 171.26 90.4583 173.469 83.2864L187.479 44.3541Z" fill="white" stroke="white" stroke-width="0.755867"/>
<path fill-rule="evenodd" clip-rule="evenodd" d="M255.818 44.3073L250.193 60.2708L269.542 60.4375L254.672 102.062H276.719L291.479 60.2865L308.182 60.375L314.094 44.1979L255.818 44.3073Z" fill="white" stroke="white" stroke-width="0.755867"/>
<path fill-rule="evenodd" clip-rule="evenodd" d="M319.583 44.4271L340.937 44.3125L320.271 102.984H297.536L319.583 44.4271Z" fill="white" stroke="white" stroke-width="0.755867"/>
<path fill-rule="evenodd" clip-rule="evenodd" d="M325.432 103.74L347.229 44.1929H372.146L378.802 72.2137L389.136 44.1929H411.526L390.401 102.985H363.99L359.401 71.1772L349.063 103.328L325.432 103.74Z" fill="white" stroke="white" stroke-width="0.755867"/>
<path fill-rule="evenodd" clip-rule="evenodd" d="M486.172 44.0783H448.052C417.932 45.2918 404.531 62.0418 406.255 80.8231C407.193 91.1147 412.927 102.422 428.99 102.526L465.161 102.755L476.297 70.9429L457.234 70.8491L451.151 86.4481C439.052 87.6616 430.339 83.7814 429.568 76.1147C429.495 69.0835 436.859 59.8127 447.938 59.8127H479.625L486.172 44.0783Z" fill="white" stroke="white" stroke-width="0.755867"/>
<path fill-rule="evenodd" clip-rule="evenodd" d="M544.068 102.495L532.703 44.2811H509.047L468.516 102.724H491.479L498.828 90.8957H520.99L522.641 103.026L544.068 102.495Z" fill="white" stroke="white" stroke-width="0.755867"/>
<path fill-rule="evenodd" clip-rule="evenodd" d="M507.797 78.0366L517.328 63.797L519.161 78.0366H507.797Z" fill="#2217BB" stroke="#2217BB" stroke-width="0.755867"/>
<path fill-rule="evenodd" clip-rule="evenodd" d="M515.078 35.2656L512.839 39.1094H539.594L541.083 35.2083L515.078 35.2656Z" fill="white" stroke="white" stroke-width="0.755867"/>
<mask id="mask0_906_14" style="mask-type:luminance" maskUnits="userSpaceOnUse" x="545" y="44" width="82" height="59">
<path d="M545.333 44H626.531V102.667H545.333V44Z" fill="white"/>
</mask>
<g mask="url(#mask0_906_14)">
<path fill-rule="evenodd" clip-rule="evenodd" d="M626.094 44.396H576.995C563.755 44.396 555.969 53.6929 555.49 67.896C555.234 75.3335 559.25 79.7345 566.297 79.745L593.547 79.7241C597.297 79.7189 597.396 85.6043 593.453 85.6147L551.568 85.7293L546.531 101.958L591.62 101.88C605.25 100.901 615.625 93.4377 616.141 77.8179C616.448 68.7397 611.734 65.2814 605.172 65.1408H579.729C576.365 65.1408 576.323 59.021 579.828 59.0158L621.24 58.9377L626.094 44.396Z" fill="white"/>
</g>
<mask id="mask1_906_14" style="mask-type:luminance" maskUnits="userSpaceOnUse" x="541" y="40" width="86" height="67">
<path d="M541.333 40H626.531V106.667H541.333V40Z" fill="white"/>
</mask>
<g mask="url(#mask1_906_14)">
<path d="M626.094 44.396H576.995C563.755 44.396 555.969 53.6929 555.49 67.896C555.234 75.3335 559.25 79.7345 566.297 79.745L593.547 79.7241C597.297 79.7189 597.396 85.6043 593.453 85.6147L551.568 85.7293L546.531 101.958L591.62 101.88C605.25 100.901 615.625 93.4377 616.141 77.8179C616.448 68.7397 611.734 65.2814 605.172 65.1408H579.729C576.365 65.1408 576.323 59.021 579.828 59.0158L621.24 58.9377L626.094 44.396Z" stroke="white" stroke-width="0.755867"/>
</g>
</g>
<defs>
<clipPath id="clip0_906_14">
<rect width="626.533" height="149.333" fill="white"/>
</clipPath>
</defs>
</svg>
